<svg width="65" height="41" viewBox="0 0 65 41" fill="none" xmlns="http://www.w3.org/2000/svg">
<path d="M56.4999 18.8333C55.6158 18.8254 54.7343 18.7362 53.8666 18.5666C53.0323 18.3915 52.2172 18.1347 51.4332 17.8L50.8666 17.6666H50.4666C50.1332 17.6666 49.9666 17.9 49.9666 18.3666V19.4666C49.9193 19.6751 49.9193 19.8915 49.9666 20.1C50.134 20.3741 50.3771 20.5941 50.6666 20.7333C51.4683 21.1344 52.3204 21.4259 53.1999 21.6C54.2919 21.861 55.4104 21.9953 56.5332 22C57.6627 22.0339 58.7898 21.8761 59.8666 21.5333C60.7561 21.2999 61.5857 20.8794 62.2999 20.3C62.9749 19.7782 63.5316 19.1193 63.9332 18.3666C64.3154 17.5537 64.5091 16.6649 64.4999 15.7666C64.5119 14.6521 64.1609 13.564 63.4999 12.6666C62.611 11.6567 61.4559 10.9174 60.1666 10.5333L56.9999 9.5333C56.1151 9.30432 55.2868 8.89586 54.5666 8.3333C54.3554 8.13071 54.1875 7.88745 54.0729 7.61819C53.9583 7.34894 53.8995 7.05926 53.8999 6.76663C53.8761 6.37111 53.9595 5.97649 54.1414 5.62445C54.3233 5.27242 54.5968 4.97605 54.9332 4.76663C55.8555 4.3192 56.8762 4.11277 57.8999 4.16663C59.3584 4.13123 60.806 4.42757 62.1332 5.0333C62.4045 5.17163 62.6978 5.26186 62.9999 5.29997C63.3332 5.29997 63.4999 5.0333 63.4999 4.56663V3.36663C63.5099 3.10748 63.4401 2.8515 63.2999 2.6333C63.1219 2.40641 62.8937 2.22386 62.6332 2.09997C62.336 1.93631 62.0234 1.80233 61.6999 1.69997C61.2851 1.55355 60.8621 1.43112 60.4332 1.3333L58.9666 0.999967C58.4228 0.960683 57.877 0.960683 57.3332 0.999967C56.3979 0.983841 55.4654 1.10743 54.5666 1.36663C53.725 1.61227 52.9346 2.00746 52.2332 2.5333C51.5825 3.00812 51.0471 3.62333 50.6666 4.3333C50.2577 5.09021 50.051 5.93982 50.0666 6.79997C50.0466 8.00337 50.4343 9.17813 51.1666 10.1333C52.0818 11.2358 53.3162 12.0277 54.6999 12.4L58.0332 13.4C58.858 13.5927 59.6241 13.9814 60.2666 14.5333C60.6656 14.9558 60.8813 15.519 60.8666 16.1C60.8738 16.5216 60.7697 16.9378 60.5649 17.3064C60.3601 17.6751 60.0617 17.9833 59.6999 18.2C58.7105 18.6977 57.6043 18.9166 56.4999 18.8333ZM37.1332 2.66663C37.0818 2.3399 36.9304 2.03712 36.6999 1.79997C36.4506 1.6161 36.1412 1.5328 35.8332 1.56663H33.9999C33.6935 1.54962 33.3897 1.63141 33.1332 1.79997C32.8902 2.02807 32.7366 2.33537 32.6999 2.66663L29.3666 17.3333L25.5666 2.66663C25.5059 2.33588 25.3427 2.03264 25.0999 1.79997C25.0999 1.79997 24.6666 1.56663 24.2332 1.56663H22.0666C21.6999 1.56663 21.5332 1.76663 21.5332 2.1333C21.5656 2.43991 21.6327 2.74185 21.7332 3.0333L26.9332 20.1666C27.0008 20.4714 27.1377 20.7566 27.3332 21C27.5953 21.1527 27.8974 21.2225 28.1999 21.2H30.0999C30.4129 21.2211 30.7253 21.1517 30.9999 21C31.21 20.7403 31.348 20.4299 31.3999 20.1L34.7332 5.8333L38.0666 20.1333C38.0943 20.4601 38.2358 20.7669 38.4666 21C38.7288 21.1832 39.0483 21.266 39.3666 21.2333H41.2666C41.5623 21.2478 41.8547 21.166 42.0999 21C42.3506 20.7735 42.5155 20.4673 42.5666 20.1333L47.9332 2.99997C47.9528 2.82273 47.9528 2.64387 47.9332 2.46663C47.9462 2.34475 47.9462 2.22184 47.9332 2.09997C47.9444 2.02296 47.9375 1.9444 47.9129 1.87055C47.8884 1.79669 47.847 1.72958 47.792 1.67456C47.7369 1.61953 47.6698 1.57811 47.596 1.55359C47.5221 1.52906 47.4436 1.52212 47.3666 1.5333H45.2999C44.994 1.5208 44.6915 1.60222 44.4332 1.76663C44.228 2.02091 44.0802 2.31655 43.9999 2.6333L40.6666 17.6666L37.1332 2.66663ZM13.2332 9.76663C12.4484 9.66366 11.6581 9.608 10.8666 9.59997C8.90481 9.49689 6.97286 10.1132 5.43323 11.3333C4.77758 11.8948 4.25719 12.5971 3.91088 13.3879C3.56458 14.1786 3.4013 15.0373 3.43322 15.9C3.39445 16.6856 3.51965 17.4706 3.80085 18.2052C4.08206 18.9398 4.5131 19.6077 5.06656 20.1666C5.66141 20.7156 6.36011 21.14 7.12149 21.4148C7.88288 21.6896 8.69156 21.8092 9.49989 21.7666C10.7722 21.8032 12.0358 21.5455 13.1921 21.0136C14.3485 20.4816 15.3664 19.6899 16.1666 18.7C16.3614 19.1468 16.5841 19.581 16.8332 20C17.0705 20.3662 17.3381 20.7118 17.6332 21.0333C17.7138 21.1149 17.8099 21.1797 17.9157 21.224C18.0216 21.2682 18.1352 21.291 18.2499 21.291C18.3646 21.291 18.4782 21.2682 18.5841 21.224C18.6899 21.1797 18.7859 21.1149 18.8666 21.0333L20.2666 20.1C20.3834 20.0276 20.4829 19.9303 20.5578 19.8151C20.6327 19.6998 20.6812 19.5695 20.6999 19.4333C20.7538 19.2596 20.7538 19.0737 20.6999 18.9C20.4298 18.395 20.1959 17.8714 19.9999 17.3333C19.8213 16.6823 19.7426 16.0079 19.7666 15.3333V8.29996C19.8462 7.31216 19.7248 6.31847 19.4097 5.37889C19.0946 4.43931 18.5923 3.57335 17.9332 2.8333C17.0861 2.12101 16.1015 1.59067 15.0406 1.27527C13.9797 0.959869 12.8652 0.866158 11.7666 0.999967C10.6414 0.999548 9.5209 1.14521 8.43323 1.4333C7.46472 1.65845 6.52524 1.99398 5.63323 2.4333C5.39795 2.53724 5.19188 2.69752 5.03323 2.89997C4.95178 3.14903 4.95178 3.41757 5.03323 3.66663V4.76663C5.03323 5.2333 5.03323 5.4333 5.49989 5.4333C5.62072 5.45945 5.74574 5.45945 5.86656 5.4333L6.63323 5.16663C7.31032 4.83429 8.01248 4.55565 8.73323 4.3333C9.51814 4.13656 10.324 4.03583 11.1332 4.0333C12.4218 3.89832 13.7124 4.26878 14.7332 5.06663C15.527 6.06368 15.898 7.33232 15.7666 8.59997V10.2333L13.2332 9.76663ZM15.8332 12.7666V13.6666C15.8358 14.3183 15.7574 14.9677 15.5999 15.6C15.4592 16.1308 15.1967 16.6216 14.8332 17.0333C14.2774 17.6866 13.5501 18.1715 12.7332 18.4333C12.0046 18.6896 11.2389 18.8247 10.4666 18.8333C10.0437 18.8648 9.61893 18.8101 9.21786 18.6726C8.81679 18.5351 8.44779 18.3176 8.13322 18.0333C7.84126 17.717 7.61914 17.3429 7.48131 16.9351C7.34347 16.5274 7.29302 16.0952 7.33323 15.6666C7.30568 15.1878 7.39085 14.7091 7.5819 14.2691C7.77294 13.8291 8.06453 13.4401 8.43323 13.1333C9.4047 12.4523 10.5843 12.1338 11.7666 12.2333H13.8332C14.5091 12.3744 15.1768 12.5525 15.8332 12.7666ZM59.8666 31C51.8979 34.3527 43.3451 36.0972 34.6999 36.1333C23.1284 36.1355 11.7555 33.1257 1.69989 27.4C0.899892 26.9 0.266558 27.7333 0.966558 28.3666C10.0176 36.5488 21.7988 41.0544 33.9999 41C43.6217 41.0237 53.0285 38.1552 60.9999 32.7666C62.1332 31.7333 61.0999 30.3666 59.8666 31Z" fill="black"/>
</svg>
