<svg width="80" height="80" viewBox="0 0 80 80" fill="none" xmlns="http://www.w3.org/2000/svg">
<path d="M63.1651 38.265C63.1651 34.025 61.6401 31.09 60.3351 28.805L59.9351 28.155C58.3501 25.605 56.9651 23.365 56.9651 20.755C56.9651 17.605 59.3551 14.665 62.7251 14.665C62.8251 14.665 62.9201 14.675 63.0151 14.68L63.1701 14.695C56.8509 8.89066 48.5804 5.67453 40.0001 5.68496C34.3134 5.68204 28.7154 7.09407 23.7104 9.79381C18.7055 12.4936 14.4509 16.3962 11.3301 21.15C12.1301 21.175 12.8951 21.195 13.5401 21.195C17.1251 21.195 22.6801 20.76 22.6801 20.76C24.5301 20.65 24.7501 23.365 22.9001 23.585C22.9001 23.585 21.0451 23.805 18.9751 23.91L31.4751 61.08L38.9751 38.55L33.6251 23.905C31.7801 23.795 30.0301 23.58 30.0301 23.58C28.1801 23.47 28.4001 20.64 30.2451 20.75C30.2451 20.75 35.9151 21.185 39.2851 21.185C42.8751 21.185 48.4351 20.75 48.4351 20.75C50.2851 20.64 50.5001 23.36 48.6501 23.58C48.6501 23.58 46.7901 23.795 44.7251 23.905L57.1251 60.79L60.5451 49.355L60.8151 48.49C62.1651 44.19 63.1601 41.015 63.1601 38.26L63.1651 38.265ZM5.68509 40C5.68475 46.4437 7.49848 52.7573 10.9187 58.2184C14.339 63.6795 19.2276 68.0674 25.0251 70.88L8.65009 26.03C6.68924 30.4259 5.67886 35.1865 5.68509 40Z" fill="black"/>
<path d="M30.3049 72.915L40.6049 43L51.1499 71.9C51.2199 72.065 51.2999 72.22 51.3949 72.37C44.5971 74.7649 37.2173 74.9556 30.3049 72.915ZM70.1049 23.535C70.2549 24.63 70.3399 25.8 70.3399 27.065C70.3399 30.545 69.6899 34.46 67.7299 39.355L57.2499 69.655C64.9835 65.1618 70.656 57.8255 73.0583 49.2101C75.4606 40.5947 74.4027 31.3816 70.1099 23.535H70.1049Z" fill="black"/>
<path fill-rule="evenodd" clip-rule="evenodd" d="M0 40C0 17.945 17.945 0 40 0C62.05 0 80 17.945 80 40C80 62.055 62.05 80 40 80C17.945 80 0 62.055 0 40ZM1.835 40C1.835 61.045 18.955 78.165 40 78.165C61.04 78.165 78.16 61.045 78.16 40C78.16 18.95 61.04 1.835 40 1.835C18.95 1.835 1.835 18.95 1.835 40Z" fill="black"/>
</svg>
