<svg width="150" height="150" viewBox="0 0 150 150" fill="none" xmlns="http://www.w3.org/2000/svg">
<path d="M75.2688 43.2813C67.0176 43.2896 59.1066 46.5706 53.2715 52.4046C47.4364 58.2385 44.1537 66.1489 44.1438 74.4001C44.1376 80.2751 45.7876 86.0001 48.9001 90.9564L49.6376 92.1313L46.4938 103.613L58.2751 100.525L59.4063 101.2C64.2033 104.039 69.6759 105.535 75.2501 105.531H75.2563C83.5049 105.52 91.4124 102.238 97.2456 96.4063C103.079 90.5743 106.362 82.6674 106.375 74.4188C106.389 70.3302 105.592 66.2794 104.03 62.5009C102.468 58.7224 100.172 55.2913 97.2751 52.4063C94.3929 49.5054 90.9637 47.2051 87.1863 45.6388C83.4088 44.0724 79.3581 43.2712 75.2688 43.2813V43.2813ZM93.5688 87.7688C92.7876 89.9563 89.0501 91.9438 87.2563 92.2126C85.2899 92.5517 83.2714 92.4254 81.3626 91.8438C79.5517 91.2831 77.772 90.6259 76.0313 89.8751C66.6438 85.8251 60.5188 76.3813 60.0438 75.7501C59.5813 75.1251 56.2313 70.6751 56.2313 66.0751C56.2313 61.4688 58.6438 59.2063 59.5001 58.2688C59.8145 57.9136 60.1987 57.627 60.6289 57.427C61.059 57.227 61.5258 57.1178 62.0001 57.1063C62.6251 57.1063 63.2438 57.1126 63.7938 57.1376C64.3688 57.1626 65.1376 56.9188 65.8938 58.7438C66.6751 60.6188 68.5501 65.2188 68.7813 65.6876C69.0126 66.1501 69.1688 66.7001 68.8626 67.3251C68.5501 67.9563 68.4001 68.3376 67.9251 68.8876C67.4626 69.4376 66.9438 70.1063 66.5251 70.5313C66.0563 70.9938 65.5688 71.5001 66.1126 72.4376C66.6626 73.3688 68.5376 76.4376 71.3126 78.9188C74.8876 82.1063 77.9063 83.0876 78.8376 83.5626C79.7751 84.0251 80.3188 83.9563 80.8688 83.3251C81.4126 82.6938 83.2063 80.5938 83.8313 79.6626C84.4563 78.7251 85.0751 78.8813 85.9376 79.1876C86.7938 79.5063 91.3938 81.7626 92.3251 82.2313C93.2501 82.6938 93.8813 82.9313 94.1188 83.3251C94.3438 83.7126 94.3438 85.5813 93.5688 87.7688V87.7688Z" fill="black"/>
<path d="M125 18.75H25C23.3424 18.75 21.7527 19.4085 20.5806 20.5806C19.4085 21.7527 18.75 23.3424 18.75 25V125C18.75 126.658 19.4085 128.247 20.5806 129.419C21.7527 130.592 23.3424 131.25 25 131.25H125C126.658 131.25 128.247 130.592 129.419 129.419C130.592 128.247 131.25 126.658 131.25 125V25C131.25 23.3424 130.592 21.7527 129.419 20.5806C128.247 19.4085 126.658 18.75 125 18.75V18.75ZM75.25 111.85H75.2375C68.9878 111.851 62.8378 110.284 57.35 107.294L37.5 112.5L42.8125 93.1C39.5311 87.4076 37.8054 80.9521 37.8086 74.3816C37.8118 67.8112 39.5439 61.3573 42.8308 55.6682C46.1178 49.9791 50.8439 45.255 56.5344 41.9705C62.225 38.686 68.6796 36.9567 75.25 36.9563C80.1721 36.9426 85.0479 37.9063 89.5947 39.7913C94.1415 41.6764 98.2689 44.4453 101.737 47.9375C105.222 51.4085 107.984 55.5362 109.862 60.0818C111.741 64.6273 112.699 69.5004 112.681 74.4187C112.666 84.3416 108.718 93.8537 101.701 100.87C94.685 107.887 85.1728 111.835 75.25 111.85V111.85Z" fill="black"/>
</svg>
