<svg width="112" height="112" viewBox="0 0 112 112" fill="none" xmlns="http://www.w3.org/2000/svg">
<path d="M94.374 0C100.936 0 106.221 5.306 106.533 11.557V112L94.045 101.392L87.192 95.158L79.6985 88.6305L82.817 98.9135H17.318C10.773 98.9135 5.47046 93.954 5.47046 87.3565V11.578C5.47046 5.327 10.7765 0.021 17.339 0.021H94.339L94.374 0ZM65.8245 26.523H65.6775L64.729 27.454C74.41 30.261 79.093 34.636 79.093 34.636C72.8595 31.5175 67.2245 29.9495 61.6105 29.3125C57.5645 28.693 53.4975 29.022 50.071 29.3125H49.1225C46.935 29.3125 42.2695 30.261 36.015 32.7565C33.845 33.705 32.5885 34.3245 32.5885 34.3245C32.5885 34.3245 37.254 29.638 47.572 27.1425L46.935 26.523C46.935 26.523 39.1335 26.2115 30.7125 32.4485C30.7125 32.4485 22.2915 47.124 22.2915 65.205C22.2915 65.205 26.957 73.318 39.7565 73.626C39.7565 73.626 41.6325 71.148 43.512 68.9605C36.33 66.773 33.523 62.398 33.523 62.398C33.523 62.398 34.16 62.7095 35.091 63.329H35.364C35.511 63.329 35.5845 63.4025 35.6545 63.476V63.511C35.728 63.5845 35.8015 63.637 35.9275 63.637C37.478 64.274 39.0075 64.8935 40.2675 65.513C42.455 66.444 45.2445 67.389 48.671 68.012C53.011 68.649 57.9845 68.943 63.6545 68.012C66.444 67.375 69.251 66.773 72.058 65.513C73.864 64.582 76.104 63.6545 78.5645 62.069C78.5645 62.069 75.775 66.444 68.2815 68.6315C69.8145 70.8015 71.981 73.297 71.981 73.297C84.7945 73.0065 89.7715 64.8935 90.0445 65.24C90.0445 47.1765 81.5675 32.4835 81.5675 32.4835C73.948 26.8135 66.801 26.5965 65.5445 26.5965L65.8 26.5055L65.8245 26.523ZM66.6085 47.124C69.8915 47.124 72.534 49.9135 72.534 53.34C72.534 56.805 69.874 59.591 66.6085 59.591C63.3255 59.591 60.683 56.8015 60.683 53.375C60.683 49.91 63.343 47.124 66.6085 47.124ZM45.409 47.124C48.671 47.124 51.317 49.9135 51.317 53.34C51.317 56.805 48.657 59.591 45.3915 59.591C42.1085 59.591 39.4485 56.8015 39.4485 53.375C39.4485 49.91 42.1085 47.124 45.3915 47.124H45.409Z" fill="black"/>
</svg>
