<svg width="80" height="80" viewBox="0 0 80 80" fill="none" xmlns="http://www.w3.org/2000/svg">
<path d="M33.2516 36.1438C32.9813 46.2286 28.7863 52.19 18.3719 51.0959V22.3556C28.8945 21.197 33.305 26.6894 33.2516 36.1438ZM80 0V80H0V0H80ZM40.0181 35.9981C40.0181 24.393 33.9062 16.462 21.6462 16.462H11.7144V57.0259H21.2823C29.4316 57.0259 40.0183 52.1509 40.0183 35.9981H40.0181ZM68.3219 37.4534C68.3219 28.613 62.5739 26.612 57.4442 26.612C53.2606 26.612 49.1133 27.8491 46.0208 29.0131C45.3567 29.318 45.9136 29.1564 45.9117 33.1969V56.9167H52.5694V33.1242C58.3584 31.4773 61.7394 32.8316 61.6644 37.9264V56.9167H68.3219V37.4534Z" fill="black"/>
</svg>
