<svg width="54" height="80" viewBox="0 0 54 80" fill="none" xmlns="http://www.w3.org/2000/svg">
<path fill-rule="evenodd" clip-rule="evenodd" d="M15.0499 0C6.89322 0 0.333219 6.84333 0.333219 15.2267C0.333219 20.3233 2.75989 24.85 6.48989 27.6133C4.56748 29.0536 3.00925 30.9243 1.9401 33.0753C0.870949 35.2263 0.320616 37.5979 0.333219 40C0.333219 45.1 2.75989 49.6233 6.48989 52.3867C4.56748 53.827 3.00925 55.6976 1.9401 57.8486C0.870949 59.9997 0.320616 62.3713 0.333219 64.7733C0.333219 73.1567 6.89322 80 15.0499 80C23.2032 80 29.7666 73.1567 29.7666 64.7733V51.9C32.3443 54.0493 35.5936 55.2275 38.9499 55.23C47.1066 55.2267 53.6666 48.3833 53.6666 40C53.6799 37.5978 53.13 35.2259 52.0607 33.0748C50.9915 30.9236 49.4329 29.0531 47.5099 27.6133C49.4323 26.173 50.9905 24.3024 52.0597 22.1514C53.1288 20.0003 53.6792 17.6287 53.6666 15.2267C53.6666 6.84333 47.1066 0 38.9499 0H15.0499ZM5.86322 15.2267C5.86322 9.92333 10.0032 5.67667 15.0499 5.67667H24.2332V24.7767H15.0499C10.0032 24.7767 5.86322 20.5267 5.86322 15.2267ZM38.9499 24.7733H29.7666V5.67333H38.9499C43.9999 5.67333 48.1366 9.92333 48.1366 15.2267C48.1366 20.5267 43.9999 24.7733 38.9499 24.7733ZM5.86655 40C5.86655 34.7 10.0066 30.45 15.0532 30.45H24.2366V49.55H15.0499C9.99989 49.55 5.86322 45.3 5.86322 40H5.86655ZM29.7666 40C29.7666 34.7 33.9066 30.45 38.9532 30.45C44.0032 30.45 48.1399 34.6967 48.1399 40C48.1399 45.3 44.0032 49.55 38.9532 49.55C33.9066 49.55 29.7699 45.3033 29.7699 40H29.7666ZM5.86655 64.7733C5.86655 59.4733 10.0066 55.2267 15.0532 55.2267H24.2366V64.7733C24.2366 70.0767 20.1032 74.3233 15.0532 74.3233C10.0066 74.3233 5.86655 70.0767 5.86655 64.7733Z" fill="black"/>
</svg>
