<svg width="70" height="80" viewBox="0 0 70 80" fill="none" xmlns="http://www.w3.org/2000/svg">
<path fill-rule="evenodd" clip-rule="evenodd" d="M32.9466 13.9567C34.2166 14.3407 35.5687 14.3614 36.8499 14.0167L57.9366 51.29C56.9603 52.2306 56.2743 53.4314 55.9599 54.75H14.0332C13.6959 53.3656 12.9531 52.1132 11.8999 51.1534L32.9432 13.9567H32.9466ZM29.8766 12.0734C29.9366 12.14 30.0032 12.2034 30.0666 12.2667L8.97657 49.55C8.87711 49.5234 8.77709 49.4989 8.67657 49.4767V30.52C9.63543 30.3055 10.5391 29.8936 11.3299 29.3105C12.1208 28.7274 12.7815 27.9859 13.2699 27.1334C13.7563 26.2856 14.0635 25.347 14.1725 24.3757C14.2814 23.4044 14.1898 22.4211 13.9032 21.4867L29.8766 12.0767V12.0734ZM41.7766 9.29002C42.1144 8.22935 42.1986 7.10419 42.0224 6.00505C41.8462 4.90591 41.4144 3.86347 40.7619 2.96158C40.1094 2.05969 39.2544 1.32353 38.2655 0.812308C37.2767 0.301088 36.1816 0.02908 35.0685 0.0181643C33.9554 0.00724865 32.8552 0.25773 31.8565 0.74946C30.8579 1.24119 29.9885 1.96044 29.3185 2.84936C28.6484 3.73828 28.1963 4.77205 27.9986 5.86753C27.8008 6.963 27.8629 8.0896 28.1799 9.15669L12.1966 18.5767C11.4295 17.7901 10.4905 17.1921 9.45327 16.8297C8.41604 16.4674 7.3089 16.3506 6.21891 16.4886C5.12891 16.6265 4.08577 17.0154 3.1715 17.6247C2.25724 18.234 1.49677 19.0471 0.949899 20C0.403712 20.9541 0.0847888 22.0213 0.0178942 23.1186C-0.0490004 24.216 0.137934 25.314 0.564182 26.3274C0.990429 27.3407 1.64452 28.2422 2.47566 28.9619C3.3068 29.6815 4.29262 30.1998 5.35657 30.4767V49.5267C4.29493 49.8063 3.31185 50.3264 2.48338 51.0467C1.65492 51.767 1.00328 52.6683 0.578885 53.6808C0.154491 54.6933 -0.0312798 55.7898 0.0359453 56.8856C0.10317 57.9814 0.421589 59.047 0.966565 60C1.51269 60.9506 2.27153 61.7619 3.18362 62.3701C4.09572 62.9784 5.13628 63.3672 6.22377 63.5061C7.31127 63.6449 8.41614 63.53 9.4518 63.1704C10.4875 62.8108 11.4258 62.2163 12.1932 61.4334L28.1766 70.8534C27.9855 71.5085 27.889 72.1876 27.8899 72.87C27.8877 73.8053 28.07 74.7318 28.4263 75.5965C28.7826 76.4613 29.3059 77.2473 29.9663 77.9095C30.6267 78.5718 31.4112 79.0973 32.2749 79.456C33.1386 79.8147 34.0646 79.9996 34.9999 80C36.1379 79.9975 37.2588 79.7226 38.2687 79.1981C39.2787 78.6736 40.1484 77.9149 40.805 76.9855C41.4617 76.056 41.8862 74.9828 42.043 73.8556C42.1999 72.7285 42.0845 71.5801 41.7066 70.5067L57.5432 61.1734C58.2897 62.017 59.2264 62.6708 60.2758 63.0805C61.3252 63.4902 62.457 63.6441 63.5777 63.5294C64.6983 63.4148 65.7756 63.0348 66.7202 62.4211C67.6649 61.8073 68.4497 60.9774 69.0099 60C69.5715 59.0314 69.8969 57.9441 69.9598 56.8262C70.0228 55.7083 69.8214 54.5913 69.3721 53.5658C68.9228 52.5402 68.2382 51.6349 67.3737 50.9234C66.5093 50.2118 65.4893 49.7139 64.3966 49.47V30.5367C65.4903 30.2925 66.5113 29.7948 67.3775 29.0838C68.2437 28.3728 68.9309 27.4684 69.3836 26.4433C69.8363 25.4181 70.042 24.301 69.984 23.1819C69.9261 22.0628 69.6061 20.9729 69.0499 20C68.4963 19.0389 67.7256 18.2206 66.7993 17.6105C65.8729 17.0005 64.8167 16.6156 63.7151 16.4867C62.6134 16.3577 61.4969 16.4884 60.4548 16.868C59.4126 17.2477 58.4738 17.866 57.7132 18.6734L41.7799 9.28669L41.7766 9.29002ZM39.7799 12.4134L40.0299 12.1734L56.0566 21.6167C55.7953 22.5343 55.7205 23.4949 55.8368 24.4419C55.953 25.3888 56.2578 26.3029 56.7332 27.13C57.1991 27.9466 57.8232 28.662 58.569 29.2344C59.3148 29.8068 60.1673 30.2246 61.0766 30.4634V49.53C60.9894 49.5539 60.9027 49.5794 60.8166 49.6067L39.7799 12.4134ZM56.0966 58.6067L40.1832 67.9867C39.5201 67.2769 38.718 66.7112 37.8269 66.3246C36.9357 65.9381 35.9746 65.7391 35.0032 65.74C32.9832 65.74 31.1632 66.58 29.8699 67.9334L13.9199 58.5334C13.9599 58.4034 13.9966 58.2734 14.0266 58.14H55.9666C56.0066 58.2967 56.0499 58.4534 56.0999 58.6067H56.0966Z" fill="black"/>
</svg>
