<svg width="80" height="80" viewBox="0 0 80 80" fill="none" xmlns="http://www.w3.org/2000/svg">
<path fill-rule="evenodd" clip-rule="evenodd" d="M26.8827 16.8763H35.2161L47.1994 57.0233H39.9609L36.9803 45.5875H25.3012L22.2597 57.0234H15.8727L26.8828 18.762V16.8763H26.8827ZM35.3378 39.6872L31.2014 22.7156L26.9434 39.6869H35.3378V39.6872ZM59.6086 27.1872H53.0391V57.0234H59.6086V27.1875V27.1872ZM56.2391 15.5955C54.1108 15.5955 52.3855 17.3009 52.3855 19.4048C52.3855 21.5088 54.1108 23.2144 56.2391 23.2144C58.3673 23.2144 60.0928 21.5089 60.0928 19.405C60.0928 17.3011 58.3675 15.5955 56.2391 15.5955ZM80 80H0V0H80V80Z" fill="black"/>
</svg>
