<svg width="80" height="80" viewBox="0 0 80 80" fill="none" xmlns="http://www.w3.org/2000/svg">
<path d="M37.3803 0.0215105C37.2084 0.0371355 36.6609 0.0918231 36.1681 0.130886C24.8056 1.15526 14.1622 7.28527 7.42125 16.7072C3.6675 21.9459 1.26688 27.8884 0.359688 34.1828C0.0390625 36.3797 0 37.0288 0 40.0078C0 42.9869 0.0390625 43.636 0.359688 45.8328C2.53375 60.8532 13.2237 73.4732 27.7222 78.1488C30.3187 78.9857 33.0556 79.5563 36.1681 79.9004C37.3803 80.0332 42.6197 80.0332 43.8319 79.9004C49.2044 79.306 53.7556 77.977 58.2444 75.686C58.9325 75.3341 59.0656 75.2404 58.9716 75.1619C58.9091 75.1151 55.9766 71.1823 52.4575 66.4282L46.0606 57.7882L38.045 45.9269C33.6344 39.4056 30.0059 34.0731 29.9747 34.0731C29.9434 34.0653 29.9122 39.3356 29.8966 45.7703C29.8728 57.0375 29.8653 57.491 29.7244 57.7569C29.5212 58.14 29.3647 58.2966 29.0363 58.4685C28.7859 58.5935 28.5669 58.6169 27.3862 58.6169H26.0331L25.6737 58.3904C25.4509 58.2506 25.2698 58.0534 25.1497 57.8194L24.9853 57.4675L25.0009 41.7906L25.0244 26.1056L25.2669 25.8006C25.3919 25.6366 25.6578 25.4256 25.8456 25.3237C26.1662 25.1675 26.2912 25.1519 27.6441 25.1519C29.2394 25.1519 29.5053 25.2144 29.9197 25.6678C30.0372 25.7928 34.3772 32.3297 39.5697 40.2034C44.7625 48.0769 51.8634 58.8282 55.3509 64.106L61.6853 73.6998L62.0059 73.4888C64.8447 71.6435 67.8475 69.0163 70.2247 66.2794C75.2844 60.47 78.5453 53.3863 79.6403 45.8331C79.9609 43.636 80 42.9869 80 40.0081C80 37.0288 79.9609 36.38 79.6403 34.1828C77.4662 19.1625 66.7763 6.54246 52.2778 1.86683C49.7203 1.03807 46.9991 0.467136 43.9491 0.123073C43.1984 0.044948 38.0294 -0.0409896 37.3803 0.0215105ZM53.7556 24.2134C54.1309 24.4009 54.4359 24.7609 54.5453 25.1362C54.6078 25.3394 54.6234 29.6869 54.6078 39.4841L54.5847 53.5425L52.1056 49.7425L49.6188 45.9425V35.7231C49.6188 29.1159 49.65 25.4019 49.6969 25.2222C49.8219 24.7844 50.0959 24.4403 50.4712 24.2369C50.7919 24.0728 50.9091 24.0572 52.1369 24.0572C53.2944 24.0572 53.4975 24.0728 53.7556 24.2134Z" fill="black"/>
</svg>
