<svg width="80" height="80" viewBox="0 0 80 80" fill="none" xmlns="http://www.w3.org/2000/svg">
<path fill-rule="evenodd" clip-rule="evenodd" d="M80 80H0V0H80V80ZM63.5016 33.9084V27.7038C62.4797 27.2488 56.628 25.5748 52.005 27.3389C45.3456 29.8798 45.5848 37.5345 48.1119 40.5387C51.3861 44.4313 59.5309 45.8825 58.1981 49.7031C57.508 51.6816 54.2859 52.0259 51.4453 51.3617C48.8 50.7433 46.5 49.1764 46.5 49.1764V55.7459C46.5 55.7459 48.7734 57.0134 51.5638 57.315C55.1408 57.7014 59.6245 56.9717 61.8708 54.9752C65.8692 51.4209 66.4833 43.5475 58.9059 39.8914C52.6005 36.8492 52.7042 35.9809 52.7484 34.4205C52.8078 32.3305 57.1959 31.0439 63.5016 33.9084ZM29.4984 16.4961C34.7448 16.6786 42.455 19.0966 42.455 29.407C42.455 39.7175 33.0216 43.1008 24.4139 42.3636V56.9625H18.0016V16.6328C18.0016 16.6328 24.2517 16.3136 29.4983 16.4961H29.4984ZM31.1636 35.9766C33.9286 34.9677 35.7258 32.7988 35.7258 29.4297C35.7258 25.8577 33.8969 23.4387 31.0997 22.7555C28.0706 22.0153 24.4139 22.4516 24.4139 22.4516V36.5209C24.4139 36.5209 29.4756 36.5925 31.1636 35.9766Z" fill="black"/>
</svg>
