<svg width="60" height="60" viewBox="0 0 60 60" fill="none" xmlns="http://www.w3.org/2000/svg">
<path d="M57.6 0H2.4C1.0725 0 0 1.0725 0 2.4V57.6C0 58.9275 1.0725 60 2.4 60H57.6C58.9275 60 60 58.9275 60 57.6V2.4C60 1.0725 58.9275 0 57.6 0ZM36.4875 17.9175H46.8675V20.445H36.4875V17.9175ZM30 38.76C29.5145 39.6816 28.8212 40.4776 27.975 41.085C27.09 41.7 26.1075 42.15 25.065 42.4125C23.9743 42.7048 22.8491 42.8486 21.72 42.84H9.3V17.2575H21.375C22.5975 17.2575 23.7075 17.37 24.72 17.58C25.725 17.79 26.58 18.15 27.3 18.6375C28.0125 19.125 28.575 19.7775 28.9725 20.5875C29.3625 21.39 29.565 22.395 29.565 23.5875C29.565 24.8775 29.2725 25.9425 28.6875 26.805C28.095 27.6675 27.24 28.365 26.0775 28.9125C27.66 29.3625 28.8225 30.165 29.5875 31.29C30.3675 32.43 30.75 33.795 30.75 35.4C30.75 36.705 30.5025 37.8225 30 38.76ZM50.91 34.8H37.53C37.53 36.255 38.0325 37.65 38.79 38.4C39.555 39.1425 40.65 39.5175 42.0825 39.5175C43.1175 39.5175 43.995 39.255 44.745 38.7375C45.4875 38.22 45.9375 37.6725 46.1025 37.1025H50.5875C49.8675 39.33 48.7725 40.92 47.2875 41.88C45.8175 42.84 44.0175 43.32 41.925 43.32C40.4625 43.32 39.15 43.08 37.9725 42.6225C36.84 42.18 35.82 41.505 34.98 40.635C34.1518 39.7416 33.5116 38.6907 33.0975 37.545C32.64 36.2775 32.415 34.9425 32.43 33.6C32.43 32.2125 32.6625 30.9225 33.1125 29.7225C33.975 27.39 35.7675 25.5225 38.055 24.555C39.2775 24.045 40.59 23.79 41.9175 23.805C43.4925 23.805 44.8575 24.105 46.0425 24.72C47.1833 25.3073 48.1738 26.1489 48.9375 27.18C49.695 28.2075 50.2275 29.3775 50.565 30.6975C50.8875 31.995 51 33.36 50.91 34.8ZM41.76 27.63C40.95 27.63 40.2675 27.7725 39.7425 28.05C39.2175 28.3275 38.7825 28.6725 38.4525 29.07C38.1382 29.4538 37.9059 29.8979 37.77 30.375C37.65 30.7725 37.5675 31.1775 37.5375 31.59H45.825C45.705 30.2925 45.255 29.3325 44.655 28.6575C44.025 27.99 43.0125 27.63 41.76 27.63ZM23.1225 26.8725C23.775 26.4 24.09 25.62 24.09 24.5475C24.1125 24.0375 24.0075 23.535 23.7825 23.0775C23.58 22.71 23.28 22.4025 22.9125 22.185C22.5314 21.9539 22.1082 21.801 21.6675 21.735C21.1875 21.645 20.7 21.6 20.22 21.6075H14.9475V27.585H20.655C21.6375 27.5925 22.47 27.3525 23.1225 26.8725ZM24.0075 32.2725C23.2725 31.71 22.29 31.4325 21.0675 31.4325H14.9325V38.4825H20.9475C21.51 38.4825 22.0275 38.43 22.53 38.325C23.0325 38.22 23.4825 38.04 23.865 37.785C24.2475 37.5375 24.555 37.2 24.7875 36.765C25.0125 36.33 25.125 35.775 25.125 35.1075C25.125 33.78 24.75 32.8425 24.0075 32.2725Z" fill="black"/>
</svg>
