<svg width="98" height="80" viewBox="0 0 98 80" fill="none" xmlns="http://www.w3.org/2000/svg">
<path d="M72.4335 23.4323C72.4335 23.4323 64.5155 52.8213 63.8686 55.2483C61.8747 36.8293 59.862 18.4132 57.8304 0C44.3381 0 37.1241 11.3646 33.3116 23.36L22.875 55.3205C22.814 53.0284 21.4102 23.7067 21.4102 23.7067C20.5802 9.00981 9.20372 0.0626016 0 0.0626016L11.1446 80C25.2797 79.9278 32.9006 68.6306 36.8922 56.6352C36.8922 56.6352 45.396 30.6411 45.746 29.4613C45.807 30.5688 51.8492 79.9952 51.8492 79.9952C66.0413 79.9952 73.6663 69.3914 77.7677 57.815L97.6521 0.0674168C83.635 0.0674168 76.246 11.3646 72.4335 23.4274V23.4323Z" fill="black"/>
</svg>
