<svg width="68" height="68" viewBox="0 0 68 68" fill="none" xmlns="http://www.w3.org/2000/svg">
<path d="M54.0001 67.3333H14.0001C10.4639 67.3333 7.07248 65.9285 4.57199 63.428C2.07151 60.9276 0.666748 57.5362 0.666748 54V14C0.666748 10.4637 2.07151 7.07235 4.57199 4.57187C7.07248 2.07138 10.4639 0.666626 14.0001 0.666626H54.0001C57.5363 0.666626 60.9277 2.07138 63.4282 4.57187C65.9286 7.07235 67.3334 10.4637 67.3334 14V54C67.3334 57.5362 65.9286 60.9276 63.4282 63.428C60.9277 65.9285 57.5363 67.3333 54.0001 67.3333ZM14.0001 7.33329C12.232 7.33329 10.5363 8.03567 9.28604 9.28591C8.03579 10.5362 7.33341 12.2318 7.33341 14V54C7.33341 55.7681 8.03579 57.4638 9.28604 58.714C10.5363 59.9642 12.232 60.6666 14.0001 60.6666H54.0001C55.7682 60.6666 57.4639 59.9642 58.7141 58.714C59.9644 57.4638 60.6667 55.7681 60.6667 54V14C60.6667 12.2318 59.9644 10.5362 58.7141 9.28591C57.4639 8.03567 55.7682 7.33329 54.0001 7.33329H14.0001ZM46.5401 49.92C45.0986 49.978 43.6604 49.742 42.3131 49.2262C40.9658 48.7105 39.7376 47.9258 38.7034 46.92C36.5381 44.4514 35.4274 41.2319 35.6101 37.9533C35.543 34.7668 36.6797 31.6721 38.7934 29.2866C39.8984 28.1184 41.2379 27.197 42.7241 26.5829C44.2102 25.9688 45.8094 25.6759 47.4167 25.7233H48.1934V19.0566C48.1934 18.5366 48.6167 18.1133 49.1367 18.11H53.5267C53.7704 18.1009 54.0086 18.1842 54.1934 18.3433C54.2836 18.4287 54.3546 18.5323 54.4017 18.6472C54.4489 18.7622 54.471 18.8858 54.4667 19.01V44.6066C54.4501 45.49 54.4967 46.3733 54.6001 47.25V47.3333C54.6052 47.5452 54.5395 47.7529 54.4134 47.9233C54.3046 48.0571 54.1666 48.1642 54.0101 48.2366C51.6967 49.3408 49.1668 49.917 46.6034 49.9233L46.5401 49.92ZM43.4867 32.8666L43.4701 32.8866C42.4143 34.2761 41.8831 35.9937 41.9701 37.7366C41.8332 39.5527 42.3577 41.3569 43.4467 42.8166C44.3367 43.7966 45.6201 44.33 46.9434 44.2633C47.3636 44.2696 47.783 44.227 48.1934 44.1366V31.3066C47.8823 31.24 47.5649 31.2076 47.2467 31.21C46.5355 31.1909 45.829 31.3306 45.1786 31.6189C44.5282 31.9072 43.9502 32.3369 43.4867 32.8766V32.8666ZM34.7501 49.5333H29.9134C29.6648 49.5495 29.4173 49.4876 29.2057 49.356C28.9941 49.2245 28.8289 49.0301 28.7334 48.8L28.0334 47.3333L28.0167 47.2966L27.3334 45.9333L27.1201 45.49C26.0567 43.2966 24.9601 41.0366 23.8601 38.71C22.3306 42.0986 20.756 45.4667 19.1367 48.8133V48.8466L19.1201 48.8766C19.0085 49.0636 18.8529 49.2204 18.6667 49.3333C18.4775 49.4463 18.2604 49.504 18.0401 49.5H13.4701C13.279 49.5093 13.09 49.4562 12.9318 49.3485C12.7736 49.2408 12.6548 49.0845 12.5934 48.9033C12.5533 48.7653 12.5453 48.6199 12.5702 48.4783C12.595 48.3367 12.652 48.2027 12.7367 48.0866L20.1667 33.8833L12.9801 19.5033C12.8834 19.3634 12.8283 19.199 12.8213 19.0291C12.8142 18.8592 12.8554 18.6907 12.9401 18.5433C13.0215 18.4095 13.1361 18.2991 13.2728 18.2226C13.4094 18.1461 13.5635 18.1061 13.7201 18.1066H18.5001C18.7323 18.0942 18.9633 18.1473 19.1667 18.26C19.3736 18.3862 19.5329 18.5772 19.6201 18.8033C21.4067 22.5533 22.9134 25.8033 24.2301 28.6866C25.8667 25.02 27.6067 21.2933 28.7734 18.8233L28.7901 18.7866L28.8101 18.7533V18.7166C28.8936 18.574 28.9981 18.4448 29.1201 18.3333C29.3263 18.1612 29.5882 18.0699 29.8567 18.0766H34.3334C34.5046 18.0721 34.6734 18.1172 34.8195 18.2065C34.9657 18.2958 35.0828 18.4255 35.1567 18.58C35.2156 18.7214 35.2394 18.8751 35.226 19.0277C35.2127 19.1804 35.1626 19.3275 35.0801 19.4566L27.8901 33.4133L35.4967 48.08C35.5768 48.2073 35.627 48.3511 35.6437 48.5006C35.6605 48.6501 35.6433 48.8014 35.5934 48.9433C35.5306 49.1159 35.4157 49.2647 35.2646 49.3692C35.1136 49.4737 34.9338 49.5287 34.7501 49.5266V49.5333Z" fill="black"/>
</svg>
